HIERARCHY
ROOT ui
{
	 OFFSET 0 0 0
	 CHANNELS 3 XPosition YPosition Z Position
	 EndSite
	 {
	 OFFSET 0 -1 0
	 }
}
ROOT li
{
	 OFFSET 0 0 0
	 CHANNELS 3 XPosition YPosition Z Position
	 EndSite
	 {
	 OFFSET 0 -1 0
	 }
}
ROOT ul
{
	 OFFSET 0 0 0
	 CHANNELS 3 XPosition YPosition Z Position
	 EndSite
	 {
	 OFFSET 0 -1 0
	 }
}
ROOT ll
{
	 OFFSET 0 0 0
	 CHANNELS 3 XPosition YPosition Z Position
	 EndSite
	 {
	 OFFSET 0 -1 0
	 }
}
ROOT tt
{
	 OFFSET 0 0 0
	 CHANNELS 3 XPosition YPosition Z Position
	 EndSite
	 {
	 OFFSET 0 -1 0
	 }
}
ROOT tb
{
	 OFFSET 0 0 0
	 CHANNELS 3 XPosition YPosition Z Position
	 EndSite
	 {
	 OFFSET 0 -1 0
	 }
}
ROOT td
{
	 OFFSET 0 0 0
	 CHANNELS 3 XPosition YPosition Z Position
	 EndSite
	 {
	 OFFSET 0 -1 0
	 }
}
ROOT v
{
	 OFFSET 0 0 0
	 CHANNELS 3 XPosition YPosition Z Position
	 EndSite
	 {
	 OFFSET 0 -1 0
	 }
}
ROOT bn
{
	 OFFSET 0 0 0
	 CHANNELS 3 XPosition YPosition Z Position
	 EndSite
	 {
	 OFFSET 0 -1 0
	 }
}
MOTION
Frames: 24
Frame Time: 0.002
0.001273473024368286	5.510169863700867E-4	0		0.5395703125	-2.439599853515625	0		-0.9985784912109374	0.0862132797241211	0		-0.6089412231445313	-2.67079296875	0		1.63019384765625	-0.7674036865234375	0		3.20631689453125	-0.15643649291992187	0		4.6933671875	0.04079161834716797	0		5.65127734375	0.09189407348632812	0		-0.24479989624023438	5.93379443359375	0		
0.0516668586730957	0.0026717019081115723	0		0.5472404174804687	-2.445766357421875	0		-1.075156982421875	0.09200904846191406	0		-0.678992919921875	-2.6600205078125	0		1.5697835693359374	-0.7594061889648438	0		3.230695556640625	-0.15640994262695312	0		4.67771728515625	0.04164312744140625	0		5.65144873046875	0.07591646575927734	0		-0.28449200439453126	5.9291650390625	0		
0.0591396484375	0.004430635929107666	0		0.5481744384765626	-2.438828857421875	0		-0.9946484985351562	0.09654238891601563	0		-0.6322158813476563	-2.666935546875	0		1.590433349609375	-0.7535928344726562	0		3.2331796875	-0.15507429504394532	0		4.68132763671875	0.05419316864013672	0		5.65825830078125	0.08561416625976563	0		-0.3220993957519531	5.921501953125	0		
0.04270699310302734	0.0025387349128723146	0		0.5332247314453125	-2.43266162109375	0		-1.080102294921875	0.0944696044921875	0		-0.6840706176757813	-2.6564228515625	0		1.581043701171875	-0.7603518676757812	0		3.224025634765625	-0.13858709716796874	0		4.67691455078125	0.054830142974853516	0		5.64385791015625	0.10982996368408203	0		-0.26122232055664063	5.93344482421875	0		
0.03849846649169922	0.00247945499420166	0		0.5252940063476562	-2.43759423828125	0		-1.01238720703125	0.08923975372314454	0		-0.6668876342773438	-2.655880615234375	0		1.57388818359375	-0.7641490478515625	0		3.1935029296875	-0.16182493591308594	0		4.66453076171875	0.04354582595825195	0		5.64212060546875	0.07990278625488281	0		-0.30034423828125	5.92881982421875	0		
0.03539719390869141	-0.006588622093200684	0		0.5045620422363282	-2.443347412109375	0		-1.092353515625	0.09110098266601563	0		-0.696603515625	-2.662667724609375	0		1.5700145263671874	-0.7639990234375	0		3.20454736328125	-0.161667236328125	0		4.66054931640625	0.044108509063720706	0		5.6393046875	0.08108110046386718	0		-0.28519699096679685	5.92244189453125	0		
0.030804737091064453	0.002372981071472168	0		0.5291447143554687	-2.443726318359375	0		-1.096082275390625	0.09090992736816406	0		-0.6630082397460938	-2.6643193359375	0		1.5494622802734375	-0.7586264038085937	0		3.2189033203125	-0.15757432556152343	0		4.656826171875	0.04463024520874023	0		5.63960107421875	0.09591708374023437	0		-0.3436430358886719	5.92309521484375	0		
0.027362489700317384	0.0023247809410095214	0		0.49420330810546875	-2.427281982421875	0		-1.1294361572265625	0.09814243316650391	0		-0.6980474853515625	-2.65701025390625	0		1.5681322021484374	-0.7568021240234375	0		3.205685302734375	-0.14212338256835938	0		4.66154248046875	0.05699959564208985	0		5.64008251953125	0.10893735504150391	0		-0.3136822509765625	5.9285390625	0		
0.02913662338256836	-0.0027878620624542235	0		0.5500367431640625	-2.44707666015625	0		-1.026721923828125	0.08853936767578124	0		-0.6669978637695313	-2.662592041015625	0		1.5630135498046875	-0.7596588745117188	0		3.20927099609375	-0.16192930603027345	0		4.66121630859375	0.04539947509765625	0		5.62852392578125	0.10151390075683593	0		-0.31745974731445314	5.9284580078125	0		
0.021333927154541014	0.0022366299629211425	0		0.5006466064453124	-2.42843798828125	0		-1.105580810546875	0.09041933441162109	0		-0.6825320434570312	-2.6565263671875	0		1.5571617431640625	-0.7635137939453125	0		3.20865771484375	-0.14369618225097655	0		4.6555029296875	0.057839290618896484	0		5.62648876953125	0.10235086059570313	0		-0.2868330993652344	5.932923828125	0		
0.014691926002502442	-0.0017504299879074097	0		0.5590772094726563	-2.443251953125	0		-1.032197509765625	0.08826335144042968	0		-0.6760233764648438	-2.666748291015625	0		1.5546397705078125	-0.763420654296875	0		3.193042724609375	-0.14628468322753907	0		4.65574853515625	0.046163856506347654	0		5.624654296875	0.10311190795898438	0		-0.2899396667480469	5.93285595703125	0		
-0.05965678024291992	-0.0038324239253997804	0		0.4899889831542969	-2.440357421875	0		-1.1484964599609375	0.09065618896484375	0		-0.7090304565429687	-2.659431396484375	0		1.5354532470703126	-0.7581121826171875	0		3.166648193359375	-0.15275157165527345	0		4.65058935546875	0.05853247833251953	0		5.63066796875	0.06895240783691406	0		-0.32581759643554686	5.9262314453125	0		
0.02640424919128418	0.003959167003631592	0		0.5181392211914062	-2.43875830078125	0		-1.0234324951171876	0.09885289001464843	0		-0.7058092651367187	-2.6535888671875	0		1.5385498046875	-0.75110693359375	0		3.20664453125	-0.15011703491210937	0		4.65242822265625	0.05077821731567383	0		5.6308779296875	0.11277932739257812	0		-0.3121671752929687	5.9359560546875	0		
0.012586735725402831	0.0020810420513153074	0		0.5055881042480469	-2.432617919921875	0		-1.034322265625	0.09186643981933594	0		-0.6765209350585938	-2.661080810546875	0		1.590671142578125	-0.761753173828125	0		3.179049072265625	-0.13560243225097657	0		4.64981689453125	0.06505921173095704	0		5.62542333984375	0.1307806854248047	0		-0.29640505981445314	5.9316611328125	0		
0.015981204986572267	-0.0030201621055603025	0		0.5261007690429688	-2.439912109375	0		-1.0399193115234375	0.08782032775878906	0		-0.6809530639648438	-2.665118408203125	0		1.5442860107421874	-0.7531058959960938	0		3.185385986328125	-0.1455527801513672	0		4.6480380859375	0.04730248260498047	0		5.61919970703125	0.10550077056884766	0		-0.2992867431640625	5.932619140625	0		
0.00975086784362793	0.0020091350078582765	0		0.49896505737304686	-2.437580810546875	0		-1.04122021484375	0.08772763824462891	0		-0.660067626953125	-2.66247900390625	0		1.5848704833984375	-0.7656055297851563	0		3.15411328125	-0.1440253448486328	0		4.635740234375	0.047661327362060545	0		5.61828271484375	0.10595491790771484	0		-0.3150465087890625	5.92175048828125	0		
0.0046337108612060545	-0.001974506974220276	0		0.5089390258789063	-2.443735595703125	0		-1.1182705078125	0.08962841033935547	0		-0.7159732055664062	-2.659832763671875	0		1.5279378662109375	-0.7578378295898438	0		3.193843505859375	-0.1604403076171875	0		4.63467236328125	0.047849811553955075	0		5.621001953125	0.08894404602050782	0		-0.37039468383789065	5.922400390625	0		
0.01580882167816162	-1.6693699359893798E-4	0		0.4862867431640625	-2.43646630859375	0		-1.1100343017578125	0.09642613983154297	0		-0.678698974609375	-2.659392822265625	0		1.54710595703125	-0.759068115234375	0		3.167197021484375	-0.14500440979003906	0		4.64197509765625	0.0599074592590332	0		5.62332763671875	0.10304000091552734	0		-0.3374243469238281	5.92790673828125	0		
0.007183362007141114	0.0018988519906997681	0		0.5007771606445313	-2.432679931640625	0		-1.1157412109375	0.09241118621826172	0		-0.7162345581054688	-2.657978759765625	0		1.5264971923828126	-0.7577894897460937	0		3.186458251953125	-0.15218060302734376	0		4.64132080078125	0.06004468154907226	0		5.61868115234375	0.12076766967773438	0		-0.338300048828125	5.92785595703125	0		
-0.06533529663085938	-0.001212278962135315	0		0.49632000732421877	-2.43765087890625	0		-1.0442747802734376	0.08740782928466796	0		-0.6826874389648437	-2.663479248046875	0		1.5401124267578126	-0.7529594116210937	0		3.188209228515625	-0.13514239501953124	0		4.64084619140625	0.06015789413452149	0		5.616134765625	0.10724143218994141	0		-0.3049063415527344	5.93236669921875	0		
0.007283589839935303	-0.007193281173706055	0		0.496078369140625	-2.437677978515625	0		-1.1205689697265624	0.08931404876708984	0		-0.7308030395507813	-2.65392333984375	0		1.5367845458984375	-0.75591796875	0		3.180774169921875	-0.14500216674804686	0		4.65053271484375	0.060119983673095706	0		5.6159169921875	0.107441162109375	0		-0.3404341125488281	5.928767578125	0		
0.006238845825195313	0.0017762110233306885	0		0.5068990478515625	-2.443849365234375	0		-1.1166934814453124	0.09219255065917968	0		-0.6819930419921875	-2.661612060546875	0		1.52561767578125	-0.7577822265625	0		3.165618408203125	-0.144775390625	0		4.63221826171875	0.048421852111816405	0		5.61927978515625	0.09018878173828125	0		-0.37283828735351565	5.92112744140625	0		
0.018244091033935546	0.0035785939693450926	0		0.513018798828125	-2.436960205078125	0		-1.1076129150390626	0.10000994110107422	0		-0.7128658447265624	-2.654273193359375	0		1.5307030029296875	-0.7508595581054688	0		3.198548095703125	-0.14917703247070313	0		4.64832470703125	0.05826680755615234	0		5.629298828125	0.09864691925048828	0		-0.2897163391113281	5.94101123046875	0		
0.006330711841583252	0.0016883360147476197	0		0.5261831665039063	-2.436162353515625	0		-1.0446619873046874	0.0871418228149414	0		-0.6926983032226562	-2.65358544921875	0		1.53980078125	-0.7529927978515625	0		3.1788681640625	-0.1329123992919922	0		4.65046044921875	0.06027574157714844	0		5.618087890625	0.12157522583007813	0		-0.3398809814453125	5.92760302734375	0		
